<svg width="89" height="93" viewBox="0 0 89 93" fill="none" xmlns="http://www.w3.org/2000/svg">
<path d="M9.46172 27.9729C9.37347 28.4323 7.26424 31.717 6.8856 32.3521C5.10166 35.8543 4.2053 37.7966 3.15248 41.6691C2.96389 42.3867 -1.3423 55.5909 0.424688 64.4235C2.91837 76.8887 10.0223 82.0705 20.7525 87.9798C31.8289 94.0797 52.4239 92.9101 52.4239 92.9101C52.4239 92.9101 70.2143 91.4652 77.3235 83.5972C82.518 77.8482 83.7762 73.6824 85.5195 66.3957C86.9388 60.4634 86.6119 56.3835 86.5534 50.7693C86.5299 48.5114 86.3994 46.7913 86.2588 44.9956C85.9986 43.1829 85.4001 41.2985 85.2528 39.5531C85.2262 39.2336 85.6774 37.5366 85.7849 37.0866L86.6237 33.4654C87.8009 28.2861 90.3676 16.0248 88.0862 11.3488C87.5474 10.2437 86.6635 9.37931 85.5195 9.01671C80.1831 7.32401 70.2547 16.0951 66.2825 19.4905C65.2251 20.3943 63.7347 22.0363 62.5904 22.6513C62.5641 22.6654 62.5371 22.6782 62.5104 22.6918C53.3487 20.2684 44.5689 18.5376 35.0277 18.9955C31.8053 13.9674 21.9739 -7.53516 15.1493 2.75197C11.9356 7.59617 10.6373 21.855 9.46172 27.9729Z" fill="#0A0A0A"/>
<path d="M27.6471 37.0443C33.4632 36.5007 38.5976 41.0274 39.1193 47.1588C39.6412 53.2901 35.3531 58.7081 29.538 59.2648C23.7141 59.8223 18.5655 55.2931 18.043 49.1523C17.5204 43.0117 21.822 37.5886 27.6471 37.0443Z" fill="#FEF6EC"/>
<path d="M27.4877 42.3625C30.4534 41.8403 33.2639 43.9364 33.7841 47.0586C34.3043 50.181 32.3397 53.1615 29.3827 53.7362C26.3904 54.3177 23.5221 52.2163 22.9956 49.0567C22.4692 45.8971 24.4864 42.8909 27.4877 42.3625Z" fill="#0A0A0A"/>
<path d="M58.4957 40.8637C64.2865 40.2909 69.4194 44.7806 69.9546 50.8865C70.4896 56.9923 66.2243 62.3977 60.432 62.9534C54.6512 63.5082 49.5366 59.0218 49.0024 52.9279C48.4682 46.8339 52.7164 41.4354 58.4957 40.8637Z" fill="#FEF6EC"/>
<path d="M58.5398 45.8632C61.5661 45.5238 64.2824 47.8296 64.6135 51.0191C64.9446 54.2087 62.7658 57.0795 59.7417 57.4383C56.7042 57.7988 53.9669 55.4896 53.6343 52.2862C53.3018 49.0829 55.5004 46.204 58.5398 45.8632Z" fill="#0A0A0A"/>
</svg>
