<svg xmlns="http://www.w3.org/2000/svg" width="200" height="200" fill="none"><g clip-path="url(#C)"><mask id="A" maskUnits="userSpaceOnUse" x="0" y="0" width="200" height="200"><path d="M165.714 0H34.286C15.35 0 0 15.35 0 34.286v131.428C0 184.65 15.35 200 34.286 200h131.428C184.65 200 200 184.65 200 165.714V34.286C200 15.35 184.65 0 165.714 0z" fill="#fff"/></mask><g mask="url(#A)"><path d="M165.714 0H34.286C15.35 0 0 15.35 0 34.286v131.428C0 184.65 15.35 200 34.286 200h131.428C184.65 200 200 184.65 200 165.714V34.286C200 15.35 184.65 0 165.714 0z" fill="url(#B)"/><path d="M9.204 123.29c.826-1.319 5.431-8.137 5.623-9.09 2.566-12.699 5.4-42.296 12.416-52.351 14.898-21.353 36.359 23.28 43.393 33.717 20.828-.95 39.993 2.642 59.993 7.673l.174-.084c2.498-1.277 5.752-4.685 8.06-6.561 8.671-7.048 30.344-25.254 41.993-21.74 2.497.753 4.427 2.547 5.603 4.841 4.98 9.706-.623 35.157-3.193 45.908l-1.831 7.516c-.234.934-1.219 4.457-1.161 5.12.321 3.623 1.628 7.534 2.196 11.297.307 3.727.741 8.297.643 11.984-.649 4.288-.525 11.933-2.193 16.243-1.628 2.095-32.734 12.4-37.507 13.927-29.618 9.677-59.955 17-90.727 21.898-.924.088-3.359.273-4.201.485-2.117-.085-3.186-1.07-3.922-3.04-.064-.019-.125-.051-.192-.055-.187-.013-.375.023-.562.016-1.593-.059-16.368-16.579-18.598-18.864-.304-.616-4.823-5.777-5.649-6.12-7.362-9.732-14.076-20.116-21.216-30.002.61-.981 1.403-7.568 1.687-9.044a55.65 55.65 0 0 1 1.021-4.333c2.298-8.038 4.255-12.07 8.149-19.339z" fill="#171717"/><path d="M54.159 129.786c12.818-1.136 24.134 8.327 25.284 21.144s-8.3 24.143-21.116 25.306c-12.836 1.166-24.182-8.302-25.334-21.139s8.328-24.173 21.167-25.311z" fill="#fef6ec"/><path d="M56.959 141.513c6.536-1.091 12.73 3.29 13.877 9.817s-3.183 12.758-9.7 13.959c-6.595 1.216-12.916-3.177-14.076-9.782s3.286-12.889 9.9-13.994z" fill="#171717"/><path d="M120.92 138.997c12.762-1.197 24.075 8.188 25.254 20.952s-8.221 24.063-20.987 25.225c-12.74 1.16-24.012-8.219-25.19-20.957s8.186-24.025 20.923-25.22z" fill="#fef6ec"/><path d="M120.462 150.358c6.67-.71 12.656 4.111 13.386 10.778s-4.072 12.669-10.737 13.419c-6.694.753-12.727-4.074-13.46-10.77s4.113-12.715 10.811-13.427zm61.49 31.816c1.013-6.135 1.287-16.053 1.239-20.784l-66.502 32.833-67.501 5.794-48.96-50.119-21.004 89.085c45.436 9.705 146.234 26.302 172.375 0 26.499-26.664 29.178-49.691 30.353-56.809z" fill="#171717"/></g></g><defs><linearGradient id="B" x1="100" y1="0" x2="100" y2="200" gradientUnits="userSpaceOnUse"><stop stop-color="#4a8ef9"/><stop offset=".716" stop-color="#b2d0ff"/></linearGradient><clipPath id="C"><path fill="#fff" d="M0 0h200v200H0z"/></clipPath></defs></svg>